<?xml version="1.0" encoding="UTF-8" standalone="no"?>
<svg
   xmlns:dc="http://purl.org/dc/elements/1.1/"
   xmlns:cc="http://creativecommons.org/ns#"
   xmlns:rdf="http://www.w3.org/1999/02/22-rdf-syntax-ns#"
   xmlns:svg="http://www.w3.org/2000/svg"
   xmlns="http://www.w3.org/2000/svg"
   xmlns:sodipodi="http://sodipodi.sourceforge.net/DTD/sodipodi-0.dtd"
   xmlns:inkscape="http://www.inkscape.org/namespaces/inkscape"
   width="208.31441mm"
   height="197.10028mm"
   viewBox="0 0 208.31441 197.10028"
   version="1.1"
   id="svg8"
   inkscape:version="1.0.1 (c497b03c, 2020-09-10)"
   sodipodi:docname="drawing-001.svg">
  <defs
     id="defs2" />
  <sodipodi:namedview
     id="base"
     pagecolor="#ffffff"
     bordercolor="#666666"
     borderopacity="1.0"
     inkscape:pageopacity="0.0"
     inkscape:pageshadow="2"
     inkscape:zoom="1"
     inkscape:cx="367.84731"
     inkscape:cy="396.52673"
     inkscape:document-units="mm"
     inkscape:current-layer="layer1"
     inkscape:document-rotation="0"
     showgrid="false"
     showguides="false"
     inkscape:guide-bbox="true"
     inkscape:window-width="1902"
     inkscape:window-height="992"
     inkscape:window-x="0"
     inkscape:window-y="23"
     inkscape:window-maximized="0">
    <sodipodi:guide
       position="50.535259,615.05342"
       orientation="0,-1"
       id="guide3044" />
    <sodipodi:guide
       position="180.07536,387.64777"
       orientation="0,-1"
       id="guide3046" />
    <inkscape:grid
       type="xygrid"
       id="grid3048"
       originx="1457.2758"
       originy="475.6966" />
    <sodipodi:guide
       position="145.78526,593.88682"
       orientation="0,-1"
       id="guide3050" />
  </sodipodi:namedview>
  <metadata
     id="metadata5">
    <rdf:RDF>
      <cc:Work
         rdf:about="">
        <dc:format>image/svg+xml</dc:format>
        <dc:type
           rdf:resource="http://purl.org/dc/dcmitype/StillImage" />
        <dc:title></dc:title>
      </cc:Work>
    </rdf:RDF>
  </metadata>
  <g
     inkscape:label="Layer 1"
     inkscape:groupmode="layer"
     id="layer1"
     transform="translate(1458.1185,475.69659)">
    <path
       style="fill:#000000;fill-opacity:1;stroke-width:4.74752"
       d=""
       id="path2959"
       transform="scale(0.26458333)" />
    <path
       style="fill:#000000;fill-opacity:1;stroke-width:4.06942"
       d=""
       id="path3030"
       transform="scale(0.26458333)" />
    <g
       id="g3113">
      <path
         style="fill:#000000;fill-opacity:1;stroke-width:1.05172"
         d="m -1458.1185,-281.18434 v -2.57981 l 1.1131,-2.44318 1.1132,-2.44318 7.5108,-5.16897 7.5108,-5.16899 25.8096,-12.94585 25.8097,-12.94584 h 1.0981 1.098 l 1.7612,2.98142 1.7611,2.98142 4.7524,4.38061 4.7525,4.38062 h 2.189 2.189 l -0.7834,-1.31465 -0.7834,-1.31465 -2.0571,-2.8264 -2.0571,-2.8264 -2.9305,-1.21383 -2.9304,-1.21384 -0.5614,-1.46276 -0.5613,-1.46276 1.6305,-4.48834 1.6305,-4.48833 -0.6253,-8.67976 -0.6252,-8.67976 -3.6747,-8.87699 -3.6746,-8.877 v -3.8412 -3.84122 l -1.4553,-2.79156 -1.4552,-2.79157 -1.1261,-6.08345 -1.1261,-6.08345 -2.1514,-2.73506 -2.1514,-2.73506 v -2.80298 -2.80298 l 1.1938,-1.19377 1.1938,-1.19377 -1.1938,-4.74089 -1.1938,-4.74089 0.014,-5.58166 0.014,-5.58166 1.9566,-6.31031 1.9565,-6.31032 0.7376,-6.0696 0.7377,-6.06961 3.6026,-4.71961 3.6025,-4.71961 v -0.82918 -0.82917 l 3.9883,-3.89445 3.9883,-3.8944 h 1.5332 1.5333 l 3.681,-2.3138 3.681,-2.3138 6.3103,0.096 6.3103,0.096 7.7852,2.373 7.7852,2.3731 4.8354,4.92688 4.8354,4.92681 5.034,6.22799 5.034,6.228 2.6869,3.42103 2.6869,3.42104 1.4669,5.51857 1.4669,5.51858 1.1722,8.72938 1.1722,8.72938 -1.3653,3.29612 -1.3653,3.29611 1.2596,0.41985 1.2595,0.41984 v 2.54165 2.54166 h -0.9641 -0.9641 l -0.8989,-2.69678 -0.8989,-2.69677 -2.3334,2.43384 -2.3334,2.43385 -2.4986,2.79891 -2.4987,2.79892 -5.9459,0.74289 -5.9458,0.74288 -3.8415,1.9585 -3.8415,1.95849 -1.5634,-1.29342 -1.5634,-1.29342 -3.9922,-8.67668 -3.9921,-8.67668 h -0.971 -0.9711 l -1.0434,1.31465 -1.0434,1.31464 -1.321,4.09733 -1.321,4.09733 -0.063,4.29861 -0.063,4.29861 3.9856,1.51693 3.9855,1.51693 1.9795,-1.23619 1.9794,-1.23619 h 2.1507 2.1506 l -0.2454,3.64385 -0.2454,3.64384 0.4754,0.40521 0.4754,0.40521 5.9823,2.78711 5.9822,2.78712 h 0.9539 0.9538 l 1.9036,-2.10344 1.9036,-2.10343 h 1.5947 1.5947 l 1.9481,-1.76307 1.9482,-1.76308 1.1425,1.14253 1.1426,1.14254 -0.414,8.24549 -0.414,8.24551 -4.5517,9.21652 -4.5516,9.21653 -6.5132,5.71828 -6.5132,5.71827 -2.835,1.07788 -2.8351,1.07788 v 2.40234 2.40234 l -2.2116,1.38116 -2.2115,1.38116 0.477,2.81577 0.477,2.81577 0.4199,1.55826 0.4199,1.55826 -4.2068,2.06277 -4.2068,2.06277 -1.3877,1.37255 -1.3877,1.37255 -2.0517,-1.09805 -2.0517,-1.09805 -1.2834,-2.05501 -1.2834,-2.05511 h -1.3246 -1.3246 v 4.18264 4.18262 l 2.5699,1.68388 2.57,1.68387 11.265,1.13934 11.2651,1.13934 8.6983,-1.16382 8.6982,-1.16382 5.2641,-2.66748 5.264,-2.66749 1.6508,-2.35683 1.6508,-2.35683 v -2.39529 -2.39528 h 1.6225 1.6224 l 5.4767,4.02372 5.4766,4.0237 9.4654,6.34068 9.4655,6.34069 4.3829,2.23325 4.3829,2.23326 6.9199,5.87057 6.9198,5.87055 1.092,2.04031 1.0919,2.0403 h -104.1571 -104.1571 z m 87.2926,-95.15602 1.8523,-0.99131 1.8523,-0.99131 1.9209,-2.1226 1.9209,-2.1226 -0.3551,-1.83161 -0.3551,-1.83161 m 0,0 -1.5783,-4.14824 -0.5252,-0.46677 -9.2934,-0.68499 -9.2934,-0.68499 2.4573,3.10563 11.3968,12.7704 m 4.6643,-21.08235 2.6977,-1.02569 v -1.62863 -1.62862 l -9.2025,0.48894 -9.2025,0.48894 -0.7888,0.0619 -0.7888,0.0619 v 1.08561 1.08561 l 2.3663,0.95117 2.3664,0.95116 4.9272,0.0667 4.9272,0.0667 z m 44.1637,-2.06568 1.6544,-1.37307 -0.023,-4.34102 -0.023,-4.34103 -1.9228,2.50048 -1.9228,2.50048 -4.1012,1.44995 -4.1012,1.44994 -5.5215,-0.65352 -5.5215,-0.65352 v 1.48841 1.48842 l 1.3146,1.35828 1.3147,1.35827 8.5998,-0.4295 8.5998,-0.4295 z m -24.6386,-20.21129 4.7328,-1.16514 9.9913,0.16856 9.9913,0.16856 1.8405,0.5673 1.8405,0.56731 -0.013,-3.48896 -0.013,-3.48896 -1.4012,-5.2586 -1.4013,-5.25859 -1.6877,-3.26196 -1.6877,-3.26197 -3.6873,-3.2375 -3.6873,-3.2375 -19.2413,0.0112 -19.2412,0.0112 -3.2612,0.99657 -3.2611,0.99658 -3.2392,4.5105 -3.2392,4.51049 0.1337,4.66227 0.1337,4.66225 -0.7968,4.99567 -0.7969,4.99566 3.4825,-0.0458 3.4826,-0.0458 4.2068,-0.79115 4.2069,-0.79115 5.7845,1.24479 5.7844,1.2448 3.1552,0.0923 3.155,0.0923 4.7328,-1.16514 z"
         id="path3070"
         sodipodi:nodetypes="ccccccccccccccccccccccccccccccccccccccccccccccccccccccccccccccccccccccccccccccccccccccccccccccccccccccccccccccccccccccccccccccccccccccccccccccccccccccccccccccccccccccccccccccccccccccccccccccccccccccccccccccccccccccccccccccccccccccccccccccccccccccccccccccccccccc" />
      <path
         id="path3072"
         style="fill:#000000;fill-opacity:1;stroke-width:0.374176"
         d="m -1365.789,-475.62627 -3.837,2.42261 c -2.9708,1.87603 -4.1556,2.4231 -5.2498,2.4231 -1.2774,0 -1.8046,0.36823 -5.4921,3.83543 -3.0251,2.84432 -4.0805,4.07297 -4.0856,4.75525 0,0.57428 -1.2461,2.54275 -3.3047,5.23846 -1.8138,2.37516 -3.4087,4.50583 -3.5445,4.73459 -0.1357,0.22873 -0.5766,3.10652 -0.9792,6.39547 -0.5836,4.76725 -1.1163,7.22307 -2.6288,12.10985 l -1.8976,6.12986 v 5.92419 c 0,5.36775 0.1073,6.34975 1.1421,10.44846 l 1.1426,4.52375 -1.1426,1.17822 c -1.0626,1.09632 -1.1421,1.36981 -1.1421,3.92534 v 2.74661 l 2.0826,2.71869 2.082,2.7187 1.1338,6.11642 c 0.9678,5.2212 1.3478,6.50616 2.5952,8.78138 1.4369,2.62081 1.4609,2.73105 1.4609,6.59391 v 3.92844 l 3.6819,8.93434 3.6815,8.93486 0.6237,8.68267 0.6232,8.68268 -1.6319,4.49326 -1.632,4.49378 0.6403,1.42989 c 0.5601,1.25097 0.9747,1.56114 3.3166,2.47995 2.0302,0.79653 2.9814,1.42578 3.9383,2.60604 1.5713,1.93816 4.7191,6.64162 4.7191,7.05125 0,0.1675 -1.0522,0.29785 -2.3384,0.28991 l -2.3389,-0.0145 -4.6772,-4.33152 c -3.7317,-3.45613 -5.0553,-4.96448 -6.5479,-7.46001 -1.4163,-2.36775 -2.0683,-3.13016 -2.682,-3.13727 -0.446,-0.005 -12.569,5.91755 -26.9405,13.16147 -25.2639,12.7342 -26.3718,13.33725 -33.4264,18.1932 -7.2609,4.99798 -7.3017,5.03345 -8.3302,7.31532 -0.8029,1.7812 -1.0326,2.85688 -1.0289,4.81882 v 2.52595 h 103.8418 103.8417 l -1.0847,-1.89911 c -0.8138,-1.42492 -2.7863,-3.34354 -7.9018,-7.68584 -5.8142,-4.93531 -7.4239,-6.0912 -10.9374,-7.85326 -4.5168,-2.2653 -19.7004,-12.24355 -28.962,-19.03295 -4.7223,-3.46175 -6.1318,-4.31447 -7.1319,-4.31447 h -1.2464 v 2.33371 c 0,2.15956 -0.1278,2.51833 -1.709,4.81159 -1.6566,2.40273 -1.8662,2.55992 -6.8962,5.16248 l -5.1878,2.68407 -8.9431,1.17874 -8.9436,1.17822 -11.3208,-1.15755 -11.3202,-1.15755 -2.5869,-1.71979 -2.5865,-1.72031 v -4.29999 -4.3 l 1.5901,0.0103 c 1.5245,0.0102 1.6419,0.0962 2.8427,2.07998 0.9935,1.64107 1.6666,2.27261 3.2526,3.05046 l 2.0004,0.98082 1.619,-1.47071 c 0.8905,-0.80883 3.345,-2.30753 5.4549,-3.33055 2.9029,-1.40751 3.7818,-1.99897 3.6112,-2.43189 -0.1686,-0.42769 -1.6624,-7.72537 -1.6624,-8.12147 0,-0.0369 1.0032,-0.67659 2.2288,-1.4211 l 2.2283,-1.35341 0.11,-2.45514 0.1101,-2.45515 2.9073,-1.17616 c 2.5509,-1.03213 3.6884,-1.86302 9.2847,-6.78098 l 6.3779,-5.60482 4.514,-9.17515 4.5144,-9.17515 0.3917,-8.13801 0.3917,-8.138 -0.879,-0.93586 c -0.4835,-0.51466 -0.9944,-0.93587 -1.1353,-0.93587 -0.141,0 -1.0218,0.67336 -1.957,1.49655 -1.4002,1.23249 -1.974,1.49707 -3.2525,1.49707 -1.4172,0 -1.7341,0.19553 -3.6313,2.24483 -1.4192,1.53285 -2.3613,2.24534 -2.9694,2.24534 -0.8536,0 -11.3525,-4.66459 -13.2074,-5.86786 -0.8746,-0.56736 -0.8894,-0.66604 -0.6527,-4.27881 l 0.2424,-3.69797 h -1.9172 c -1.5287,0 -2.3517,0.26325 -4.0587,1.30018 l -2.141,1.3007 -3.9883,-1.54203 -3.9884,-1.54202 v -4.52841 c 0,-4.21481 0.095,-4.81396 1.3704,-8.64546 1.681,-5.04963 2.7833,-6.61784 4.545,-6.46731 1.2311,0.10519 1.259,0.15228 5.1878,8.71161 3.3945,7.39527 4.16,8.77674 5.44,9.81853 l 1.4893,1.21233 3.9863,-2.01694 c 3.9362,-1.99177 4.0589,-2.02589 9.7079,-2.67322 5.6074,-0.64255 5.7399,-0.67862 6.6813,-1.81436 2.0797,-2.50912 8.4415,-9.20357 8.7462,-9.20357 0.1777,0 0.7029,1.1789 1.1669,2.61948 0.7216,2.24053 0.9681,2.61896 1.7053,2.61896 0.8101,0 0.8619,-0.14405 0.8619,-2.40244 0,-2.36307 -0.018,-2.40631 -1.1182,-2.6479 -0.6151,-0.13508 -1.2077,-0.39069 -1.3173,-0.56792 -0.1095,-0.17723 0.4042,-1.77921 1.1416,-3.56051 l 1.3405,-3.23908 -1.1783,-8.66458 c -0.9873,-7.26031 -2.357,-13.85003 -3.9656,-19.07843 -0.4512,-1.46659 -15.5136,-19.77997 -20.2096,-24.57162 l -4.9506,-5.05137 -7.7897,-2.3177 -7.7898,-2.31717 -6.0988,-0.19894 z m -4.1827,25.42533 h 19.0738 19.0733 l 3.7098,3.24993 c 3.2576,2.85346 3.9252,3.65502 5.4762,6.57686 2.6026,4.903 4.408,11.96224 4.408,17.23822 v 3.95584 l -1.7777,-0.54467 c -1.2635,-0.38732 -4.6438,-0.61111 -11.6928,-0.7736 l -9.9157,-0.22841 -4.8111,1.1653 c -6.4089,1.55254 -9.3751,1.52339 -17.0739,-0.17053 l -5.7955,-1.27537 -3.8587,0.74465 c -2.3415,0.45188 -5.4071,0.74466 -7.7979,0.74466 h -3.9393 l 0.2087,-1.02939 c 0.8658,-4.26921 1.3478,-9.08308 1.3478,-13.46636 v -5.14853 l 3.0866,-4.38836 3.0861,-4.38836 3.5962,-1.1312 z m 49.4508,40.76857 c 0.4179,0.0371 0.4123,1.35521 0.4015,4.16822 l -0.018,4.64158 -1.696,1.35237 -1.6955,1.35237 -5.6767,0.24805 c -3.1218,0.13648 -7.0229,0.34371 -8.6692,0.46044 l -2.9936,0.21239 -1.403,-1.45418 c -1.1688,-1.2113 -1.4036,-1.71735 -1.4036,-3.02875 0,-1.85382 -0.4872,-1.77646 6.0963,-0.96584 l 4.9423,0.60824 4.1455,-1.42886 c 4.0219,-1.38654 4.1881,-1.48841 5.5868,-3.41839 1.3157,-1.81553 2.0145,-2.78039 2.3833,-2.74764 z m -42.892,7.50859 c 0.1544,-0.004 0.2806,0.81138 0.2806,1.81281 v 1.82056 l -2.7125,0.98753 c -2.4623,0.89621 -3.1966,0.98556 -7.9514,0.96738 -4.7335,-0.0181 -5.4637,-0.11261 -7.5768,-0.9772 -2.2215,-0.90887 -2.3389,-1.02036 -2.3389,-2.22673 0,-0.76223 0.1869,-1.27309 0.4677,-1.27796 0.2572,-0.004 4.7613,-0.2537 10.0092,-0.55346 5.2478,-0.29975 9.6678,-0.54844 9.8221,-0.55293 z m -20.0603,9.77098 c 1.248,0.001 5.0145,0.20784 9.0822,0.50436 6.3752,0.46472 8.5904,0.75349 10.0381,4.36717 1.2585,4.75237 1.1908,4.90721 -0.6123,6.93033 -1.0346,1.16073 -2.7562,2.58912 -3.8257,3.17397 -1.0694,0.58484 -2.0017,1.06303 -7.799,-5.31906 -8.2318,-9.48394 -8.2497,-9.52161 -7.2574,-9.64437 0.069,-0.009 0.1959,-0.0126 0.3741,-0.0124 z" />
      <path
         style="fill:#ffffff;fill-opacity:1;stroke-width:1.25611"
         d="m -1343.4407,-367.04522 c 1.5538,-0.50542 1.4566,-0.9275 -0.5542,-2.40734 -3.8874,-2.86099 -9.9,-2.23401 -13.3019,1.38709 l -2.9889,3.18155 7.4804,-0.77421 c 4.1142,-0.42582 8.3283,-1.05001 9.3646,-1.38709 z"
         id="path3082"
         sodipodi:nodetypes="ssscss" />
    </g>
  </g>
</svg>
