<?xml version="1.0" encoding="UTF-8" standalone="no"?>
<svg
   xmlns:dc="http://purl.org/dc/elements/1.1/"
   xmlns:cc="http://creativecommons.org/ns#"
   xmlns:rdf="http://www.w3.org/1999/02/22-rdf-syntax-ns#"
   xmlns:svg="http://www.w3.org/2000/svg"
   xmlns="http://www.w3.org/2000/svg"
   xmlns:sodipodi="http://sodipodi.sourceforge.net/DTD/sodipodi-0.dtd"
   xmlns:inkscape="http://www.inkscape.org/namespaces/inkscape"
   width="208.31392mm"
   height="197.10011mm"
   viewBox="0 0 208.31392 197.10011"
   version="1.1"
   id="svg8"
   inkscape:version="1.0.1 (c497b03c, 2020-09-10)"
   sodipodi:docname="tony-ink-silhouette-001.svg">
  <defs
     id="defs2" />
  <sodipodi:namedview
     id="base"
     pagecolor="#ffffff"
     bordercolor="#666666"
     borderopacity="1.0"
     inkscape:pageopacity="0.0"
     inkscape:pageshadow="2"
     inkscape:zoom="0.56351619"
     inkscape:cx="109.80454"
     inkscape:cy="226.27863"
     inkscape:document-units="mm"
     inkscape:current-layer="layer1"
     inkscape:document-rotation="0"
     showgrid="false"
     showguides="false"
     inkscape:guide-bbox="true"
     inkscape:window-width="1902"
     inkscape:window-height="992"
     inkscape:window-x="0"
     inkscape:window-y="25"
     inkscape:window-maximized="0"
     fit-margin-top="0"
     fit-margin-left="0"
     fit-margin-right="0"
     fit-margin-bottom="0">
    <sodipodi:guide
       position="-122.36046,521.84618"
       orientation="0,-1"
       id="guide3044" />
    <sodipodi:guide
       position="7.1796422,294.44053"
       orientation="0,-1"
       id="guide3046" />
    <inkscape:grid
       type="xygrid"
       id="grid3048"
       originx="1285.2229"
       originy="469.00392" />
    <sodipodi:guide
       position="-27.110458,500.67958"
       orientation="0,-1"
       id="guide3050" />
  </sodipodi:namedview>
  <metadata
     id="metadata5">
    <rdf:RDF>
      <cc:Work
         rdf:about="">
        <dc:format>image/svg+xml</dc:format>
        <dc:type
           rdf:resource="http://purl.org/dc/dcmitype/StillImage" />
        <dc:title></dc:title>
      </cc:Work>
    </rdf:RDF>
  </metadata>
  <g
     inkscape:label="Layer 1"
     inkscape:groupmode="layer"
     id="layer1"
     style="display:inline"
     transform="translate(1285.2228,469.00393)">
    <path
       id="path3070"
       style="fill:#264653;fill-opacity:1;stroke-width:3.975"
       d="m -4509.7207,-1772.6133 -13.9121,8.7442 -13.9121,8.7461 h -5.7949 -5.795 l -15.0742,14.7187 -15.0742,14.7188 v 3.1347 3.1328 l -13.6152,17.8379 -13.6172,17.8379 -2.7871,22.9414 -2.7891,22.9395 -7.3945,23.8496 -7.3946,23.8515 -0.053,21.0957 -0.053,21.0957 4.5117,17.918 4.5117,17.918 -4.5117,4.5117 -4.5117,4.5117 v 10.5957 10.5938 l 8.1308,10.3359 8.1309,10.3379 4.2558,22.9922 4.2579,22.9922 5.5,10.5508 5.5,10.5507 v 14.5196 14.5176 l 13.8886,33.5507 13.8887,33.5508 2.3613,32.8047 2.3633,32.8066 -6.1621,16.9629 -6.1621,16.9629 2.1211,5.5293 2.123,5.5293 11.0743,4.5879 11.0761,4.5859 7.7754,10.6836 7.7754,10.6817 2.9609,4.9687 2.961,4.9688 h -8.2735 -8.2734 l -17.9629,-16.5567 -17.9629,-16.5566 -6.6543,-11.2676 -6.6582,-11.2676 h -4.1484 -4.1504 l -97.5488,48.9278 -97.5489,48.9297 -28.3867,19.5371 -28.3867,19.5351 -4.209,9.2344 -4.2051,9.2344 v 9.75 9.7812 h 393.6641 393.6641 l -4.125,-7.7109 -4.1289,-7.7109 -26.1524,-22.1875 -26.1543,-22.1895 -16.5664,-8.4394 -16.5644,-8.4415 -35.7754,-23.9648 -35.7735,-23.9648 -20.6992,-15.2071 -20.6992,-15.209 h -6.1328 -6.1328 v 9.0547 9.0528 l -6.2383,8.9062 -6.2402,8.9082 -19.8946,10.082 -19.8965,10.0821 -32.875,4.3984 -32.875,4.3985 -42.5761,-4.3047 -42.5762,-4.3067 -9.7148,-6.3652 -9.7129,-6.3633 v -15.8086 -15.8086 h 5.0058 5.0078 l 4.8496,7.7676 4.8516,7.7676 7.7539,4.1484 7.7539,4.1504 5.2461,-5.1875 5.2442,-5.1875 15.9003,-7.7949 15.8985,-7.7969 -1.586,-5.8906 -1.5878,-5.8887 -1.8028,-10.6426 -1.8027,-10.6425 8.3594,-5.2188 8.3574,-5.2207 v -9.0801 -9.0801 l 10.7168,-4.0742 10.7148,-4.0722 24.6172,-21.6133 24.6152,-21.6113 17.2032,-34.836 17.2031,-34.834 1.5644,-31.164 1.5665,-31.1641 -4.3184,-4.3184 -4.3184,-4.3183 -7.3632,6.6641 -7.3633,6.664 h -6.0274 -6.0273 l -7.1953,7.9492 -7.1934,7.9512 h -3.6055 -3.6054 l -22.6094,-10.5352 -22.6113,-10.5332 -1.7969,-1.5312 -1.7969,-1.5313 0.9278,-13.7734 0.9277,-13.7715 h -8.1289 -8.127 l -7.4824,4.6719 -7.4805,4.6738 -15.0644,-5.7343 -15.0625,-5.7325 0.2383,-16.248 0.2363,-16.2461 4.9941,-15.4863 4.9922,-15.4864 3.9434,-4.9687 3.9433,-4.9688 h 3.67 3.6699 l 15.0898,32.795 15.0879,32.7929 5.9082,4.8887 5.9102,4.8887 14.5176,-7.4024 14.5195,-7.4023 22.4726,-2.8067 22.4727,-2.8086 9.4434,-10.5781 9.4433,-10.5781 8.8203,-9.1992 8.8184,-9.1992 3.3984,10.1933 3.3965,10.1914 h 3.6445 3.6426 v -9.6054 -9.6075 l -4.7597,-1.5859 -4.7598,-1.5879 5.1601,-12.457 5.1602,-12.4571 -4.4316,-32.9941 -4.4297,-32.9922 -5.5449,-20.8574 -5.543,-20.8574 -10.1563,-12.9297 -10.1543,-12.9297 -19.0254,-23.5391 -19.0273,-23.539 -18.2754,-18.6211 -18.2754,-18.6211 -29.4238,-8.9707 -29.4258,-8.9688 -23.8496,-0.3613 z m 129.5391,97.5469 13.9355,12.2363 13.9356,12.2363 6.3789,12.3282 6.3789,12.3301 5.2968,19.875 5.295,19.875 0.051,13.1855 0.049,13.1875 -6.9571,-2.1445 -6.955,-2.1446 -37.7637,-0.6367 -37.7617,-0.6367 -17.8887,4.4043 v 0 l -17.8886,4.4023 -11.9239,-0.3476 -11.9257,-0.3496 -21.8614,-4.7051 -21.8632,-4.7031 -15.9004,2.9883 -15.9004,2.9902 -13.1621,0.1738 -13.1621,0.1738 3.0117,-18.8808 3.0117,-18.8828 -0.5059,-17.6211 -0.5039,-17.6211 12.2422,-17.0469 12.2422,-17.0469 12.3262,-3.7675 12.3261,-3.7657 72.7227,-0.043 z m 43.1953,152.4805 0.088,16.4062 0.086,16.4082 -6.252,5.1895 -6.25,5.1894 -32.5039,1.6231 -32.5019,1.623 -4.9707,-5.1328 -4.9668,-5.1348 v -5.625 -5.625 l 20.8672,2.4688 20.8691,2.4707 15.5,-5.4805 15.502,-5.4804 7.2675,-9.4493 z m -162.8008,29.623 v 6.1563 6.1543 l -10.1953,3.8769 -10.1973,3.877 -18.6211,-0.252 -18.623,-0.2519 -8.9434,-3.5957 -8.9433,-3.5938 v -4.1035 -4.1035 l 2.9804,-0.2344 2.9805,-0.2344 34.7812,-1.8476 z m -80.1856,35.8652 35.125,2.5879 35.1231,2.5899 1.9863,1.7637 5.9649,15.6796 1.3418,6.9219 1.3418,6.9219 -7.2598,8.0234 -7.2598,8.0215 -7.0019,3.7481 -7,3.746 -43.0742,-48.2656 z m 135.4493,61.5997 c 8.0039,-0.1595 15.9704,2.0465 22.3984,6.7773 7.5999,5.5931 7.9664,7.1894 2.0938,9.0996 -3.9168,1.274 -19.8429,3.6328 -35.3926,5.2422 l -28.2735,2.9258 11.2969,-12.0254 c 7.2324,-7.6984 17.5862,-11.8145 27.877,-12.0195 z"
       transform="scale(0.26458333)" />
  </g>
</svg>
